<svg xmlns="http://www.w3.org/2000/svg" width="299" height="80"><path fill="#005eb8" d="M194.95 31.33l-6.9 18.57h13.9zM40.65 19.9l-2.2.17-1.98.37-1.82.73-1.63 1.1-1.54 1.37-1.54 1.92-1.36 2.2-1 2.47-.73 2.83h27.67l-.54-2.83-1-2.47-1.18-2.2-1.63-1.92-1.55-1.37-1.72-1.1-1.9-.73-2.1-.37zM40.44.12l4.1.18 3.8.38 3.63.73 3.36.92 3.17 1.2 3.64 1.82 3.36 2.1 3 2.48 2.62 2.65 2.36 3.1 2.1 3.3V1.78h26.4l16.3 26.9 16.25-26.9h26.4v51.7L182.6 1.32h25.14l15.24 36.78.36-3.66.64-3.57.9-3.4 1.2-3.28 1.7-3.5 2.1-3.28 2.35-3.02 2.63-2.84 3-2.56 3.17-2.2 3.36-2 3.7-1.65 4-1.28 4.08-.92 4.18-.55 4.44-.18 4.8.18 4.54.55 4.27 1 4.1 1.3 3.8 1.64 3.63 2 3.45 2.28 3.17 2.57-14.24 17.3-2.53-1.93-2.63-1.65-2.72-1.37-2.82-1-3-.56-3.07-.18-2.36.18-2.27.46-2.18.73-2 1-1.8 1.3-1.64 1.45-1.45 1.74-1.18 1.83-.9 2.1-.64 2.3-.45 2.37-.1 2.57v.26l.2 2.56.45 2.47.72 2.37 1 2.1 1.18 1.93 1.54 1.74 1.63 1.46 1.9 1.28 2.1 1 2.36.74 2.45.36 2.54.2 2-.1 1.72-.1 1.45-.27 1.9-.54 1.63-.73v-7.7h-13.07V33.17H299v35.3l-3.17 2.48-3.54 2.2-3.82 1.92-4.08 1.74-4.36 1.37-4.53 1-4.9.65-5.07.18-4.36-.18-4.17-.55-4.08-.9-4-1.3-3.53-1.46-3.28-1.64-3.08-2-2.9-2.3 3.53 8.7H212.2l-4-10.35h-26.6l-3.9 10.36h-42V40.4l-17.5 27.25h-.45l-17.5-27.26v37.96H75.56v-29.1h-47.8l1 2.3 1.26 2 1.45 1.74 1.8 1.46 2.37 1.37 2.72 1 3 .56 3.17.17 3.27-.18 3.1-.65 2.9-1 2.35-1.2 2.36-1.55 12.7 15.46-3.7 2.56-3.9 2.3-3.54 1.55-3.82 1.2-4.17.8-4.35.46-4.72.2-4.63-.2-4.44-.54-4.27-.84-4-1.28-3.8-1.55-3.53-1.92-3.27-2.1-3-2.47-2.72-2.65L7 63.26l-2-3.3-1.83-3.47-1.35-3.76-1-3.94-.64-4.12-.18-4.4v-.26l.18-4.12.54-3.93 1-3.84L3 24.46 4.62 21l1.9-3.3 2.27-3.12 2.54-2.83 2.8-2.57 3.1-2.28 3.35-1.92 3.62-1.74 3.8-1.37 3.9-1 4.2-.56z"/><path fill="#ed1c24" d="M40.64 19.9l-2.18.17-2 .37-1.8.73-1.64 1.1-1.54 1.37-1.54 1.92-1.36 2.2-1 2.47-.73 2.83h27.67l-.54-2.83-1-2.47-1.18-2.2-1.63-1.92-1.55-1.37-1.72-1.1-1.9-.73-2.1-.37zM40.46.12l4.08.18 3.8.38L52 1.4l3.36.92 3.17 1.2 3.64 1.82 3.36 2.1 3 2.48 2.62 2.65 2.36 3.1 2.1 3.3V2.33l3.07 3.1 2.63 3.5 2.27 3.74 1.8 4.12 1.38 4.2.8 4.5.28 4.66-.26 4.66-.8 4.5-1.38 4.28-1.8 4.03-2.28 3.76-2.63 3.57-3.08 3.1v-8.77h-47.8l1 2.3 1.26 2 1.45 1.74 1.8 1.46 2.37 1.37 2.72 1 3 .56 3.17.17 3.27-.18 3.1-.65 2.9-1 2.35-1.2 2.36-1.55 7.54 9.15-3.8 1.55-4 1.2-4.17.63-4.27.28-4.44-.27-4.26-.73-4.1-1.2-3.9-1.63-3.62-2.1-3.35-2.4-3.18-2.83-2.72-3.1-2.45-3.4-2.1-3.65-1.62-3.85-1.18-4.12-.72-4.3-.28-4.4.28-4.2.63-4.12 1.08-3.92 1.54-3.75 1.9-3.57 2.27-3.3 2.53-3.1 1-.46 1.1-.46 3.8-1.37 3.9-1L36.1.3z"/></svg>